# xmcd CD database file
#
# Track frame offsets:
#	150
#	12285
#	26120
#	38833
#	57370
#	71209
#	91623
#	105326
#	117396
#	131142
#	145086
#	159516
#	173281
#	185847
#	201293
#
# Disc length: 2952 seconds
#
# Revision: 0
# Processed by: cddbd v1.5.1PL0 Copyright (c) Steve Scherf et al.
# Submitted via: CDex 1.50beta9
#
DISCID=cc0b860f
DTITLE=Bobby Hackett - Featuring, CD 1
DYEAR=1900
DGENRE=Jazz
TTITLE0=Ja-Da
TTITLE1=Love Ist Just Around The Corner
TTITLE2=Beat To The Socks
TTITLE3=Embraceable You
TTITLE4=Diane
TTITLE5=Serenade To A Shylock
TTITLE6=Swingin with the Eel
TTITLE7=Bugle Call Rag
TTITLE8=It's Right Here For You
TTITLE9=Strut Miss Lizzie
TTITLE10=Sunday
TTITLE11=California Here I Come
TTITLE12=There'll Be Some Changes Made
TTITLE13=Nobody's Sweetheart
TTITLE14=A Good Man Is Hard To Find
EXTD=
EXTT0=
EXTT1=
EXTT2=
EXTT3=
EXTT4=
EXTT5=
EXTT6=
EXTT7=
EXTT8=
EXTT9=
EXTT10=
EXTT11=
EXTT12=
EXTT13=
EXTT14=
PLAYORDER=
